<svg width="785" height="240" viewBox="0 0 785 240" fill="none" xmlns="http://www.w3.org/2000/svg">
<path d="M546 15C546 6.71572 552.716 0 561 0H770C778.284 0 785 6.71573 785 15V224C785 232.284 778.284 239 770 239H561C552.716 239 546 232.284 546 224V15Z" fill="#FF4704"/>
<path d="M624.6 180C615.533 180 608.867 179.6 604.6 178.8C600.333 178 598.2 177.067 598.2 176L610.2 150.2C613.267 150.733 619.6 151.267 629.2 151.8C638.8 152.2 651.267 152.4 666.6 152.4H682.4C687.067 152.4 690.2 151.733 691.8 150.4C693.4 149.067 694.2 147.133 694.2 144.6V142.6C694.2 139.4 693.4 137.2 691.8 136C690.2 134.8 687.067 134.2 682.4 134.2H636.6C623.133 134.2 613.333 131.733 607.2 126.8C601.067 121.733 598 113.533 598 102.2V95C598 89.1333 599.067 83.7333 601.2 78.8C603.467 73.8667 607.267 69.9333 612.6 67C617.933 63.9333 625.267 62.4 634.6 62.4H701C709.133 62.4 715.867 62.8667 721.2 63.8C726.667 64.7333 729.4 65.7333 729.4 66.8L723.4 91.6C719.667 91.2 712.6 90.8 702.2 90.4C691.933 89.8667 678.867 89.6 663 89.6L648.6 89.4C644.467 89.4 641.533 90 639.8 91.2C638.067 92.2667 637.133 94.3333 637 97.4V98.8C637 101.867 637.933 104 639.8 105.2C641.667 106.4 644.667 107 648.8 107H692.8C701.333 107 708.6 107.867 714.6 109.6C720.6 111.333 725.2 114.533 728.4 119.2C731.6 123.733 733.2 130.467 733.2 139.4V146.6C733.2 156.6 730.6 164.667 725.4 170.8C720.333 176.933 711.467 180 698.8 180H624.6Z" fill="white"/>
<path d="M0 16C0 7.71572 6.71573 1 15 1H224C232.284 1 239 7.71573 239 16V225C239 233.284 232.284 240 224 240H15C6.71572 240 0 233.284 0 225V16Z" fill="#FF4704"/>
<path d="M34.6 180L93.2 62.4H145.2L203.6 180H160.6L150.8 158.6H87.6L76.6 180H34.6ZM98.6 131H139.6L120.2 88.4H118.2L98.6 131Z" fill="white"/>
<path d="M273 15C273 6.71572 279.716 0 288 0H497C505.284 0 512 6.71573 512 15V224C512 232.284 505.284 239 497 239H288C279.716 239 273 232.284 273 224V15Z" fill="#FF4704"/>
<path d="M312 180V78.4L310 62.4H358.4L393.6 132.4L429.6 62.4H475.4V180H437.2V112.6H435L426.6 134.2L412 168H375.6L360.4 134.2L352.2 112.6H350.2V180H312Z" fill="white"/>
</svg>
